<svg xmlns="http://www.w3.org/2000/svg" viewBox="0 0 64 64"><defs><style>.a{fill:#000842;}.b{fill:#fff;}.c{fill:#f6ae2d;stroke:#000842;stroke-miterlimit:10;}</style></defs><rect class="a" width="64" height="64"/><path class="b" d="M45.94,21.48a1.23,1.23,0,0,1-1.21-1A12.65,12.65,0,0,0,32,10,12.64,12.64,0,0,0,19.28,20.45a1.26,1.26,0,0,1-1.18,1A9.47,9.47,0,0,0,9,30.73,9.52,9.52,0,0,0,18.76,40H45.24A9.51,9.51,0,0,0,55,30.73a9.48,9.48,0,0,0-9.07-9.25Z"/><path class="c" d="M29.75,29.47a2.26,2.26,0,0,1,4.5,0V48.63l4.92-4.39a2.45,2.45,0,0,1,3.18,0,1.86,1.86,0,0,1,0,2.83l-8.76,7.81a2.45,2.45,0,0,1-3.18,0l-8.76-7.81a1.86,1.86,0,0,1,0-2.83,2.45,2.45,0,0,1,3.18,0l4.92,4.39Z"/></svg>
