<svg xmlns="http://www.w3.org/2000/svg" viewBox="0 0 32 32"><defs><style>.a{fill:#fff;}.b{fill:#000842;}.c{fill:#f6ae2d;}</style></defs><rect class="a" width="32" height="32"/><polygon class="b" points="25.95 9.5 18.95 9.5 18.95 2.5 19.91 2.5 6.05 2.5 6.05 29.5 25.95 29.5 25.95 9.5"/><polygon class="b" points="20.5 2.5 20.5 7.5 25.5 7.5 20.5 2.5"/><path class="c" d="M14.77,14.34a1.24,1.24,0,0,1,2.46,0V21.5l2.68-2.4a1.35,1.35,0,0,1,1.73,0,1,1,0,0,1,0,1.55l-4.77,4.27a1.33,1.33,0,0,1-1.74,0l-4.77-4.27a1,1,0,0,1,0-1.55,1.35,1.35,0,0,1,1.73,0l2.68,2.4Z"/></svg>
