<svg xmlns="http://www.w3.org/2000/svg" viewBox="0 0 32 32"><defs><style>.a,.c{fill:#fff;}.b{fill:#000842;}.c{stroke:#000842;stroke-miterlimit:10;}</style></defs><rect class="a" width="32" height="32"/><path class="b" d="M11.66,15.2h3.17V9.5a.79.79,0,0,1,.79-.79h4.83V5.8a.79.79,0,0,1,.79-.8h7.41a.8.8,0,0,1,.8.8v7.41a.79.79,0,0,1-.8.79H21.24a.79.79,0,0,1-.79-.79V10.29h-4V21.67l4,0V18.79a.79.79,0,0,1,.79-.79h7.41a.79.79,0,0,1,.8.79V26.2a.8.8,0,0,1-.8.8H21.24a.79.79,0,0,1-.79-.8V23.28l-4.83,0a.79.79,0,0,1-.79-.79V16.8H11.66"/><path class="c" d="M11.55,19.71a.79.79,0,0,1-.79.79H3.35a.79.79,0,0,1-.8-.79V12.29a.79.79,0,0,1,.8-.79h7.41a.79.79,0,0,1,.79.79Z"/></svg>